<svg id="图层_1" data-name="图层 1" xmlns="http://www.w3.org/2000/svg" xmlns:xlink="http://www.w3.org/1999/xlink" viewBox="0 0 42.28 44.23"><defs><style>.cls-1,.cls-2{fill-rule:evenodd;}.cls-1{fill:url(#未命名的渐变_25);}.cls-2{fill:url(#未命名的渐变_20);}</style><linearGradient id="未命名的渐变_25" x1="12.47" y1="18.4" x2="36.89" y2="42.82" gradientUnits="userSpaceOnUse"><stop offset="0" stop-color="#ccc"/><stop offset="1" stop-color="#fff"/></linearGradient><linearGradient id="未命名的渐变_20" x1="7.36" y1="25.45" x2="31.86" y2="11.2" gradientUnits="userSpaceOnUse"><stop offset="0" stop-color="#e4edf2"/><stop offset="0.33" stop-color="#79afcc"/><stop offset="1" stop-color="#79afcc"/></linearGradient></defs><title>sunrise_logo</title><path class="cls-1" d="M4.09,24l.39,0L26.76,40.7l-6.22,4.75a3.19,3.19,0,0,1-1.95.67c-6.32,0-15.73-14.93-15.73-20.57,0-1.44,1-1.55,1.19-1.55m4.41.28,36.68,2.37-13.07,10L8.46,24.28Z" transform="translate(-2.86 -1.88)"/><path class="cls-2" d="M32.07,11.36l13.07,10L8.46,23.72,32.07,11.36ZM4.05,24c-.2,0-1.19-.11-1.19-1.55,0-5.64,9.41-20.57,15.73-20.57a3.19,3.19,0,0,1,1.95.67L26.76,7.3,4.48,24l-.39,0" transform="translate(-2.86 -1.88)"/></svg>